<svg width="180" height="181" viewBox="0 0 180 181" fill="none" xmlns="http://www.w3.org/2000/svg">
<line y1="-0.5" x2="70.9947" y2="-0.5" transform="matrix(0.309882 0.950775 -0.961335 0.275382 113 112.5)" stroke="black"/>
<line y1="-0.5" x2="69.8588" y2="-0.5" transform="matrix(-0.257663 0.966235 -0.973616 -0.228191 113 112.5)" stroke="black"/>
<path d="M126.5 11.7188C126.5 17.8848 121.158 22.9375 114.5 22.9375C107.842 22.9375 102.5 17.8848 102.5 11.7188C102.5 5.55271 107.842 0.5 114.5 0.5C121.158 0.5 126.5 5.55271 126.5 11.7188Z" fill="#FDFF95" fill-opacity="0.2" stroke="black"/>
<line x1="113.5" y1="113.437" x2="113.5" y2="23.4375" stroke="black"/>
<line y1="-0.5" x2="55.8323" y2="-0.5" transform="matrix(-0.340305 0.940315 -0.952954 -0.303116 113 51.5625)" stroke="black"/>
<line y1="-0.5" x2="55.8323" y2="-0.5" transform="matrix(0.340305 0.940315 0.952954 -0.303116 114 51.5625)" stroke="black"/>
<line y1="-0.5" x2="85.8619" y2="-0.5" transform="matrix(-0.524097 -0.851658 0.879587 -0.475738 143 177.188)" stroke="black"/>
<line y1="-0.5" x2="73.7398" y2="-0.5" transform="matrix(-0.257663 0.966235 -0.973616 -0.228191 101 108.75)" stroke="black"/>
<path d="M60.5 11.7188C60.5 17.8848 55.1583 22.9375 48.5 22.9375C41.8417 22.9375 36.5 17.8848 36.5 11.7188C36.5 5.55271 41.8417 0.5 48.5 0.5C55.1583 0.5 60.5 5.55271 60.5 11.7188Z" fill="#FDFF95" fill-opacity="0.2" stroke="black"/>
<line y1="-0.5" x2="98.9362" y2="-0.5" transform="matrix(-0.498336 -0.866984 0.892567 -0.450915 101.303 109.214)" stroke="black"/>
<line y1="-0.5" x2="59.1862" y2="-0.5" transform="matrix(0.963063 0.269277 -0.303158 0.95294 61 41.25)" stroke="black"/>
<line y1="-0.5" x2="58.4916" y2="-0.5" transform="matrix(0.974499 -0.224391 0.253435 0.967352 61 40.3125)" stroke="black"/>
<line x1="-4.66255e-08" y1="179.5" x2="180" y2="179.5" stroke="black"/>
<path d="M20.9716 166.398L20.9716 175.125H19.9148L19.9148 167.506H19.8636L17.733 168.92L17.733 167.847L19.9148 166.398H20.9716ZM26.277 175.244C25.6918 175.244 25.1747 175.141 24.7259 174.933C24.2798 174.723 23.9318 174.435 23.6818 174.068C23.4318 173.699 23.3082 173.278 23.3111 172.807C23.3082 172.437 23.3807 172.097 23.5284 171.784C23.6761 171.469 23.8778 171.206 24.1335 170.996C24.392 170.783 24.6804 170.648 24.9986 170.591V170.54C24.581 170.432 24.2486 170.197 24.0014 169.837C23.7543 169.473 23.6321 169.06 23.6349 168.597C23.6321 168.153 23.7443 167.757 23.9716 167.408C24.1989 167.058 24.5114 166.783 24.9091 166.581C25.3097 166.379 25.7656 166.278 26.277 166.278C26.7827 166.278 27.2344 166.379 27.6321 166.581C28.0298 166.783 28.3423 167.058 28.5696 167.408C28.7997 167.757 28.9162 168.153 28.919 168.597C28.9162 169.06 28.7898 169.473 28.5398 169.837C28.2926 170.197 27.9645 170.432 27.5554 170.54V170.591C27.8707 170.648 28.1548 170.783 28.4077 170.996C28.6605 171.206 28.8622 171.469 29.0128 171.784C29.1634 172.097 29.2401 172.437 29.2429 172.807C29.2401 173.278 29.1122 173.699 28.8594 174.068C28.6094 174.435 28.2614 174.723 27.8153 174.933C27.3722 175.141 26.8594 175.244 26.277 175.244ZM26.277 174.307C26.6719 174.307 27.0128 174.243 27.2997 174.115C27.5866 173.987 27.8082 173.807 27.9645 173.574C28.1207 173.341 28.2003 173.068 28.2031 172.756C28.2003 172.426 28.1151 172.135 27.9474 171.882C27.7798 171.629 27.5511 171.43 27.2614 171.286C26.9744 171.141 26.6463 171.068 26.277 171.068C25.9048 171.068 25.5724 171.141 25.2798 171.286C24.9901 171.43 24.7614 171.629 24.5938 171.882C24.429 172.135 24.348 172.426 24.3509 172.756C24.348 173.068 24.4233 173.341 24.5767 173.574C24.733 173.807 24.956 173.987 25.2457 174.115C25.5355 174.243 25.8793 174.307 26.277 174.307ZM26.277 170.165C26.5895 170.165 26.8665 170.102 27.108 169.977C27.3523 169.852 27.544 169.678 27.6832 169.453C27.8224 169.229 27.8935 168.966 27.8963 168.665C27.8935 168.369 27.8239 168.112 27.6875 167.893C27.5511 167.672 27.3622 167.501 27.1207 167.382C26.8793 167.26 26.598 167.199 26.277 167.199C25.9503 167.199 25.6648 167.26 25.4205 167.382C25.1761 167.501 24.9872 167.672 24.8537 167.893C24.7202 168.112 24.6548 168.369 24.6577 168.665C24.6548 168.966 24.7216 169.229 24.858 169.453C24.9972 169.678 25.1889 169.852 25.4332 169.977C25.6776 170.102 25.9588 170.165 26.277 170.165ZM33.7227 175.244C33.0806 175.244 32.5337 175.07 32.082 174.72C31.6303 174.368 31.2852 173.858 31.0465 173.19C30.8079 172.52 30.6886 171.71 30.6886 170.761C30.6886 169.818 30.8079 169.013 31.0465 168.345C31.288 167.675 31.6346 167.163 32.0863 166.811C32.5408 166.456 33.0863 166.278 33.7227 166.278C34.359 166.278 34.9031 166.456 35.3548 166.811C35.8093 167.163 36.1559 167.675 36.3945 168.345C36.636 169.013 36.7567 169.818 36.7567 170.761C36.7567 171.71 36.6374 172.52 36.3988 173.19C36.1602 173.858 35.815 174.368 35.3633 174.72C34.9116 175.07 34.3647 175.244 33.7227 175.244ZM33.7227 174.307C34.359 174.307 34.8533 174 35.2056 173.386C35.5579 172.773 35.734 171.898 35.734 170.761C35.734 170.006 35.6531 169.362 35.4911 168.831C35.332 168.3 35.1019 167.895 34.8008 167.616C34.5025 167.338 34.1431 167.199 33.7227 167.199C33.092 167.199 32.5991 167.51 32.244 168.132C31.8888 168.751 31.7113 169.628 31.7113 170.761C31.7113 171.517 31.7908 172.159 31.9499 172.687C32.109 173.216 32.3377 173.618 32.636 173.893C32.9371 174.169 33.2994 174.307 33.7227 174.307ZM41.0522 175.261C40.4386 175.261 39.9102 175.116 39.467 174.827C39.0238 174.537 38.6829 174.138 38.4442 173.629C38.2056 173.121 38.0863 172.54 38.0863 171.886C38.0863 171.222 38.2085 170.635 38.4528 170.126C38.6999 169.615 39.0437 169.216 39.484 168.929C39.9272 168.639 40.4442 168.494 41.0352 168.494C41.4954 168.494 41.9102 168.58 42.2795 168.75C42.6488 168.92 42.9513 169.159 43.1871 169.466C43.4229 169.773 43.5692 170.131 43.6261 170.54L42.6204 170.54C42.5437 170.241 42.3732 169.977 42.109 169.747C41.8477 169.514 41.4954 169.398 41.0522 169.398C40.6602 169.398 40.3164 169.5 40.021 169.705C39.7283 169.906 39.4996 170.192 39.3349 170.561C39.1729 170.928 39.092 171.358 39.092 171.852C39.092 172.358 39.1715 172.798 39.3306 173.173C39.4925 173.548 39.7198 173.839 40.0124 174.047C40.3079 174.254 40.6545 174.358 41.0522 174.358C41.3136 174.358 41.5508 174.312 41.7638 174.222C41.9769 174.131 42.1573 174 42.305 173.83C42.4528 173.659 42.5579 173.455 42.6204 173.216L43.6261 173.216C43.5692 173.602 43.4286 173.95 43.2042 174.26C42.9826 174.567 42.6886 174.811 42.3221 174.993C41.9585 175.172 41.5352 175.261 41.0522 175.261ZM45.0962 175.125L45.0962 168.58H46.0678V169.602H46.1531C46.2894 169.253 46.5096 168.982 46.8136 168.788C47.1175 168.592 47.4826 168.494 47.9087 168.494C48.3406 168.494 48.6999 168.592 48.9869 168.788C49.2766 168.982 49.5025 169.253 49.6644 169.602H49.7326C49.9002 169.264 50.1516 168.996 50.4869 168.797C50.8221 168.595 51.2241 168.494 51.6928 168.494C52.2781 168.494 52.7567 168.678 53.1289 169.044C53.5011 169.408 53.6871 169.974 53.6871 170.744L53.6871 175.125H52.6815L52.6815 170.744C52.6815 170.261 52.5494 169.916 52.2852 169.709C52.021 169.501 51.7099 169.398 51.3519 169.398C50.8917 169.398 50.5352 169.537 50.2823 169.815C50.0295 170.091 49.9031 170.44 49.9031 170.864L49.9031 175.125H48.8803L48.8803 170.642C48.8803 170.27 48.7596 169.97 48.5181 169.743C48.2766 169.513 47.9656 169.398 47.5849 169.398C47.3235 169.398 47.0792 169.467 46.8519 169.607C46.6275 169.746 46.4457 169.939 46.3065 170.186C46.1701 170.43 46.1019 170.713 46.1019 171.034L46.1019 175.125H45.0962Z" fill="black"/>
</svg>
