<?xml version="1.0" standalone="no"?>
<!DOCTYPE svg PUBLIC "-//W3C//DTD SVG 20010904//EN"
 "http://www.w3.org/TR/2001/REC-SVG-20010904/DTD/svg10.dtd">
<svg version="1.0" xmlns="http://www.w3.org/2000/svg"
 width="512.000000pt" height="512.000000pt" viewBox="0 0 512.000000 512.000000"
 preserveAspectRatio="xMidYMid meet">
<metadata>
Created by potrace 1.14, written by Peter Selinger 2001-2017
</metadata>
<g transform="translate(0.000000,512.000000) scale(0.100000,-0.100000)"
fill="#000000" stroke="none">
<path d="M100 4726 l0 -394 96 -163 96 -164 2 -703 c1 -462 -2 -702 -9 -703
-5 0 -41 -2 -80 -3 -82 -4 -110 -13 -148 -52 -57 -57 -71 -148 -34 -220 28
-54 95 -94 157 -94 l31 0 -2 -830 c-1 -943 -5 -892 80 -980 58 -60 99 -81 171
-87 139 -13 264 82 294 221 8 34 11 314 11 863 l0 813 30 0 c37 0 104 30 127
56 26 30 48 89 48 131 0 53 -36 120 -81 150 -38 25 -55 28 -199 33 -13 0 -15
85 -15 703 l1 702 74 125 c40 69 84 143 96 165 l24 40 0 393 0 392 -385 0
-385 0 0 -394z"/>
<path d="M1648 5072 c-286 -235 -447 -690 -351 -997 32 -102 117 -202 220
-259 48 -27 182 -76 207 -76 19 0 18 10 17 -155 0 -71 -1 -375 -1 -675 l-1
-545 -50 -55 c-167 -184 -327 -500 -384 -760 -40 -177 -44 -230 -45 -556 l0
-241 -39 -7 c-53 -8 -119 -61 -147 -116 -37 -74 -18 -180 43 -236 44 -40 91
-56 178 -59 44 -2 105 -7 135 -11 30 -5 60 -9 65 -9 81 -8 249 -67 395 -140
189 -94 301 -132 465 -159 75 -13 197 -15 715 -12 599 2 629 3 713 24 126 31
213 64 372 142 220 108 388 154 601 164 97 4 149 23 191 68 56 59 70 165 33
237 -25 50 -90 99 -142 107 -21 4 -38 9 -38 13 -1 3 -2 137 -4 296 -4 239 -8
309 -25 401 -70 376 -230 683 -491 944 -150 151 -198 176 -237 127 l-18 -24
-85 54 c-148 95 -366 189 -500 218 -45 9 -54 22 -56 72 -1 26 -2 51 -3 54 -2
12 -131 59 -200 74 -42 9 -108 13 -181 11 -99 -2 -129 -7 -210 -35 -52 -18
-100 -37 -107 -43 -8 -6 -13 -32 -13 -64 l0 -53 -42 -11 c-77 -19 -252 -82
-310 -111 l-58 -29 0 544 0 545 43 11 c135 35 233 86 304 158 94 96 135 215
132 380 -5 298 -154 609 -380 798 -23 19 -45 34 -49 34 -5 0 -10 -154 -12
-342 -4 -452 16 -422 -283 -424 -222 -2 -247 4 -281 60 -17 28 -19 60 -24 373
l-5 341 -57 -46z"/>
<path d="M3941 5096 c-17 -18 -29 -52 -43 -128 -11 -57 -20 -112 -21 -122 -1
-13 -28 -32 -83 -60 -70 -37 -139 -79 -154 -96 -31 -33 -38 -33 -159 9 -126
44 -148 44 -182 5 -34 -40 -140 -234 -145 -266 -6 -40 7 -56 124 -158 69 -60
82 -75 76 -93 -10 -33 -12 -159 -3 -227 10 -68 14 -61 -86 -145 -132 -110
-132 -105 -11 -313 59 -101 84 -123 129 -116 9 1 66 19 126 40 l109 39 62 -44
c35 -25 97 -59 139 -77 l76 -33 18 -103 c23 -128 39 -165 74 -179 17 -6 89 -9
175 -7 135 3 149 5 169 24 19 20 36 81 63 236 6 34 12 40 69 65 34 15 95 52
136 81 l74 54 106 -38 c116 -41 153 -44 182 -18 31 28 159 256 159 282 0 30
-17 62 -47 85 -13 10 -29 24 -36 30 -6 7 -34 32 -62 56 l-50 43 -2 141 c-1 78
-3 151 -5 163 -2 15 19 40 87 98 91 78 103 93 104 134 1 28 -135 268 -163 287
-31 22 -55 19 -181 -25 l-115 -39 -63 43 c-34 24 -89 55 -122 70 -33 15 -67
31 -75 35 -10 6 -23 49 -37 127 -32 167 -27 164 -232 164 -154 0 -158 -1 -180
-24z m294 -669 c98 -27 185 -100 233 -197 24 -49 27 -66 27 -155 0 -93 -2
-105 -32 -165 -125 -254 -472 -280 -632 -46 -100 146 -78 355 50 472 52 47 64
54 124 78 65 27 158 32 230 13z"/>
</g>
</svg>
