<svg width="85" height="181" viewBox="0 0 85 181" fill="none" xmlns="http://www.w3.org/2000/svg">
<line x1="53.4488" y1="123.22" x2="25.4488" y2="180.22" stroke="black"/>
<line x1="84.5608" y1="180.239" x2="53.5608" y2="123.239" stroke="black"/>
<circle cx="54.5" cy="15.5" r="12" fill="#FDFF95" fill-opacity="0.2" stroke="black"/>
<line x1="53.5" y1="124" x2="53.5" y2="28" stroke="black"/>
<line x1="53.4735" y1="58.1606" x2="34.4735" y2="114.161" stroke="black"/>
<line y1="-0.5" x2="59.1354" y2="-0.5" transform="matrix(0.321296 0.946979 0.946979 -0.321296 54 58)" stroke="black"/>
<line x1="10.5" y1="3" x2="10.5" y2="180" stroke="black"/>
<path d="M21.7273 47.9716L13 47.9716L13 46.9148L20.6193 46.9148L20.6193 46.8636L19.2045 44.733L20.2784 44.733L21.7273 46.9148L21.7273 47.9716ZM12.8807 53.277C12.8807 52.6918 12.9844 52.1747 13.1918 51.7259C13.402 51.2798 13.6903 50.9318 14.0568 50.6818C14.4261 50.4318 14.8466 50.3082 15.3182 50.3111C15.6875 50.3082 16.0284 50.3807 16.3409 50.5284C16.6562 50.6761 16.919 50.8778 17.1293 51.1335C17.3423 51.392 17.4773 51.6804 17.5341 51.9986L17.5852 51.9986C17.6932 51.581 17.9276 51.2486 18.2884 51.0014C18.652 50.7543 19.0653 50.6321 19.5284 50.6349C19.9716 50.6321 20.3679 50.7443 20.7173 50.9716C21.0668 51.1989 21.3423 51.5114 21.544 51.9091C21.7457 52.3097 21.8466 52.7656 21.8466 53.277C21.8466 53.7827 21.7457 54.2344 21.544 54.6321C21.3423 55.0298 21.0668 55.3423 20.7173 55.5696C20.3679 55.7997 19.9716 55.9162 19.5284 55.919C19.0653 55.9162 18.652 55.7898 18.2884 55.5398C17.9276 55.2926 17.6932 54.9645 17.5852 54.5554L17.5341 54.5554C17.4773 54.8707 17.3423 55.1548 17.1293 55.4077C16.919 55.6605 16.6562 55.8622 16.3409 56.0128C16.0284 56.1634 15.6875 56.2401 15.3182 56.2429C14.8466 56.2401 14.4261 56.1122 14.0568 55.8594C13.6903 55.6094 13.402 55.2614 13.1918 54.8153C12.9844 54.3722 12.8807 53.8594 12.8807 53.277ZM13.8182 53.277C13.8182 53.6719 13.8821 54.0128 14.0099 54.2997C14.1378 54.5866 14.3182 54.8082 14.5511 54.9645C14.7841 55.1207 15.0568 55.2003 15.3693 55.2031C15.6989 55.2003 15.9901 55.1151 16.2429 54.9474C16.4957 54.7798 16.6946 54.5511 16.8395 54.2614C16.9844 53.9744 17.0568 53.6463 17.0568 53.277C17.0568 52.9048 16.9844 52.5724 16.8395 52.2798C16.6946 51.9901 16.4957 51.7614 16.2429 51.5937C15.9901 51.429 15.6989 51.348 15.3693 51.3509C15.0568 51.348 14.7841 51.4233 14.5511 51.5767C14.3182 51.733 14.1378 51.956 14.0099 52.2457C13.8821 52.5355 13.8182 52.8793 13.8182 53.277ZM17.9602 53.277C17.9602 53.5895 18.0227 53.8665 18.1477 54.108C18.2727 54.3523 18.4474 54.544 18.6719 54.6832C18.8963 54.8224 19.1591 54.8935 19.4602 54.8963C19.7557 54.8935 20.0128 54.8239 20.2315 54.6875C20.4531 54.5511 20.6236 54.3622 20.7429 54.1207C20.8651 53.8793 20.9261 53.598 20.9261 53.277C20.9261 52.9503 20.8651 52.6648 20.7429 52.4205C20.6236 52.1761 20.4531 51.9872 20.2315 51.8537C20.0128 51.7202 19.7557 51.6548 19.4602 51.6577C19.1591 51.6548 18.8963 51.7216 18.6719 51.858C18.4474 51.9972 18.2727 52.1889 18.1477 52.4332C18.0227 52.6776 17.9602 52.9588 17.9602 53.277ZM12.8807 60.7227C12.8807 60.0806 13.0554 59.5337 13.4048 59.082C13.7571 58.6303 14.267 58.2852 14.9347 58.0465C15.6051 57.8079 16.4148 57.6886 17.3636 57.6886C18.3068 57.6886 19.1122 57.8079 19.7798 58.0465C20.4503 58.288 20.9616 58.6346 21.3139 59.0863C21.669 59.5408 21.8466 60.0863 21.8466 60.7227C21.8466 61.359 21.669 61.9031 21.3139 62.3548C20.9616 62.8093 20.4503 63.1559 19.7798 63.3945C19.1122 63.636 18.3068 63.7567 17.3636 63.7567C16.4148 63.7567 15.6051 63.6374 14.9347 63.3988C14.267 63.1602 13.7571 62.815 13.4048 62.3633C13.0554 61.9116 12.8807 61.3647 12.8807 60.7227ZM13.8182 60.7227C13.8182 61.359 14.125 61.8533 14.7386 62.2056C15.3523 62.5579 16.2273 62.734 17.3636 62.734C18.1193 62.734 18.7628 62.6531 19.294 62.4911C19.8253 62.332 20.2301 62.1019 20.5085 61.8008C20.7869 61.5025 20.9261 61.1431 20.9261 60.7227C20.9261 60.092 20.6151 59.5991 19.9929 59.244C19.3736 58.8888 18.4972 58.7113 17.3636 58.7113C16.608 58.7113 15.9659 58.7908 15.4375 58.9499C14.9091 59.109 14.5071 59.3377 14.2315 59.636C13.956 59.9371 13.8182 60.2994 13.8182 60.7227ZM12.8636 68.0522C12.8636 67.4386 13.0085 66.9102 13.2983 66.467C13.5881 66.0238 13.9872 65.6829 14.4957 65.4442C15.0043 65.2056 15.5852 65.0863 16.2386 65.0863C16.9034 65.0863 17.4901 65.2085 17.9986 65.4528C18.5099 65.6999 18.9091 66.0437 19.196 66.484C19.4858 66.9272 19.6307 67.4442 19.6307 68.0352C19.6307 68.4954 19.5455 68.9102 19.375 69.2795C19.2045 69.6488 18.9659 69.9513 18.6591 70.1871C18.3523 70.4229 17.9943 70.5692 17.5852 70.6261L17.5852 69.6204C17.8835 69.5437 18.1477 69.3732 18.3778 69.109C18.6108 68.8477 18.7273 68.4954 18.7273 68.0522C18.7273 67.6602 18.625 67.3164 18.4205 67.021C18.2187 66.7283 17.9332 66.4996 17.5639 66.3349C17.1974 66.1729 16.767 66.092 16.2727 66.092C15.767 66.092 15.3267 66.1715 14.9517 66.3306C14.5767 66.4925 14.2855 66.7198 14.0781 67.0124C13.8707 67.3079 13.767 67.6545 13.767 68.0522C13.767 68.3136 13.8125 68.5508 13.9034 68.7638C13.9943 68.9769 14.125 69.1573 14.2955 69.305C14.4659 69.4528 14.6705 69.5579 14.9091 69.6204L14.9091 70.6261C14.5227 70.5692 14.1747 70.4286 13.8651 70.2042C13.5582 69.9826 13.3139 69.6886 13.1321 69.3221C12.9531 68.9585 12.8636 68.5352 12.8636 68.0522ZM13 72.0962L19.5455 72.0962L19.5455 73.0678L18.5227 73.0678L18.5227 73.1531C18.8722 73.2894 19.1435 73.5096 19.3366 73.8136C19.5327 74.1175 19.6307 74.4826 19.6307 74.9087C19.6307 75.3406 19.5327 75.6999 19.3366 75.9869C19.1435 76.2766 18.8722 76.5025 18.5227 76.6644L18.5227 76.7326C18.8608 76.9002 19.1293 77.1516 19.3281 77.4869C19.5298 77.8221 19.6307 78.2241 19.6307 78.6928C19.6307 79.2781 19.4474 79.7567 19.081 80.1289C18.7173 80.5011 18.1506 80.6871 17.3807 80.6871L13 80.6871L13 79.6815L17.3807 79.6815C17.8636 79.6815 18.2088 79.5494 18.4162 79.2852C18.6236 79.021 18.7273 78.7099 18.7273 78.3519C18.7273 77.8917 18.5881 77.5352 18.3097 77.2823C18.0341 77.0295 17.6847 76.9031 17.2614 76.9031L13 76.9031L13 75.8803L17.483 75.8803C17.8551 75.8803 18.1548 75.7596 18.3821 75.5181C18.6122 75.2766 18.7273 74.9656 18.7273 74.5849C18.7273 74.3235 18.6577 74.0792 18.5185 73.8519C18.3793 73.6275 18.1861 73.4457 17.9389 73.3065C17.6946 73.1701 17.4119 73.1019 17.0909 73.1019L13 73.1019L13 72.0962Z" fill="black"/>
</svg>
