<svg width="66" height="181" viewBox="0 0 66 181" fill="none" xmlns="http://www.w3.org/2000/svg">
<line x1="28.4488" y1="123.22" x2="0.448778" y2="180.22" stroke="black"/>
<line x1="59.5608" y1="180.239" x2="28.5608" y2="123.239" stroke="black"/>
<circle cx="29.5" cy="15.5" r="12" fill="#FDFF95" fill-opacity="0.2" stroke="black"/>
<line x1="28.5" y1="124" x2="28.5" y2="28" stroke="black"/>
<line x1="28.4735" y1="58.1606" x2="9.47349" y2="114.161" stroke="black"/>
<line y1="-0.5" x2="59.1354" y2="-0.5" transform="matrix(0.321296 0.946979 0.946979 -0.321296 29 58)" stroke="black"/>
<line x1="65.5" y1="3" x2="65.5" y2="180" stroke="black"/>
<path d="M52.2727 78.0284L61 78.0284L61 79.0852L53.3807 79.0852L53.3807 79.1364L54.7955 81.267L53.7216 81.267L52.2727 79.0852L52.2727 78.0284ZM61.1193 72.723C61.1193 73.3082 61.0156 73.8253 60.8082 74.2741C60.598 74.7202 60.3097 75.0682 59.9432 75.3182C59.5739 75.5682 59.1534 75.6918 58.6818 75.6889C58.3125 75.6918 57.9716 75.6193 57.6591 75.4716C57.3437 75.3239 57.081 75.1222 56.8707 74.8665C56.6577 74.608 56.5227 74.3196 56.4659 74.0014L56.4148 74.0014C56.3068 74.419 56.0724 74.7514 55.7116 74.9986C55.348 75.2457 54.9347 75.3679 54.4716 75.3651C54.0284 75.3679 53.6321 75.2557 53.2827 75.0284C52.9332 74.8011 52.6577 74.4886 52.456 74.0909C52.2543 73.6903 52.1534 73.2344 52.1534 72.723C52.1534 72.2173 52.2543 71.7656 52.456 71.3679C52.6577 70.9702 52.9332 70.6577 53.2827 70.4304C53.6321 70.2003 54.0284 70.0838 54.4716 70.081C54.9347 70.0838 55.348 70.2102 55.7116 70.4602C56.0724 70.7074 56.3068 71.0355 56.4148 71.4446L56.4659 71.4446C56.5227 71.1293 56.6577 70.8452 56.8707 70.5923C57.081 70.3395 57.3437 70.1378 57.6591 69.9872C57.9716 69.8366 58.3125 69.7599 58.6818 69.7571C59.1534 69.7599 59.5739 69.8878 59.9432 70.1406C60.3097 70.3906 60.598 70.7386 60.8082 71.1847C61.0156 71.6278 61.1193 72.1406 61.1193 72.723ZM60.1818 72.723C60.1818 72.3281 60.1179 71.9872 59.9901 71.7003C59.8622 71.4134 59.6818 71.1918 59.4489 71.0355C59.2159 70.8793 58.9432 70.7997 58.6307 70.7969C58.3011 70.7997 58.0099 70.8849 57.7571 71.0526C57.5043 71.2202 57.3054 71.4489 57.1605 71.7386C57.0156 72.0256 56.9432 72.3537 56.9432 72.723C56.9432 73.0952 57.0156 73.4276 57.1605 73.7202C57.3054 74.0099 57.5043 74.2386 57.7571 74.4062C58.0099 74.571 58.3011 74.652 58.6307 74.6491C58.9432 74.652 59.2159 74.5767 59.4489 74.4233C59.6818 74.267 59.8622 74.044 59.9901 73.7543C60.1179 73.4645 60.1818 73.1207 60.1818 72.723ZM56.0398 72.723C56.0398 72.4105 55.9773 72.1335 55.8523 71.892C55.7273 71.6477 55.5526 71.456 55.3281 71.3168C55.1037 71.1776 54.8409 71.1065 54.5398 71.1037C54.2443 71.1065 53.9872 71.1761 53.7685 71.3125C53.5469 71.4489 53.3764 71.6378 53.2571 71.8793C53.1349 72.1207 53.0739 72.402 53.0739 72.723C53.0739 73.0497 53.1349 73.3352 53.2571 73.5795C53.3764 73.8239 53.5469 74.0128 53.7685 74.1463C53.9872 74.2798 54.2443 74.3452 54.5398 74.3423C54.8409 74.3452 55.1037 74.2784 55.3281 74.142C55.5526 74.0028 55.7273 73.8111 55.8523 73.5668C55.9773 73.3224 56.0398 73.0412 56.0398 72.723ZM61.1193 65.2773C61.1193 65.9194 60.9446 66.4663 60.5952 66.918C60.2429 67.3697 59.733 67.7148 59.0653 67.9535C58.3949 68.1921 57.5852 68.3114 56.6364 68.3114C55.6932 68.3114 54.8878 68.1921 54.2202 67.9535C53.5497 67.712 53.0384 67.3654 52.6861 66.9137C52.331 66.4592 52.1534 65.9137 52.1534 65.2773C52.1534 64.641 52.331 64.0969 52.6861 63.6452C53.0384 63.1907 53.5497 62.8441 54.2202 62.6055C54.8878 62.364 55.6932 62.2433 56.6364 62.2433C57.5852 62.2433 58.3949 62.3626 59.0653 62.6012C59.733 62.8398 60.2429 63.185 60.5952 63.6367C60.9446 64.0884 61.1193 64.6353 61.1193 65.2773ZM60.1818 65.2773C60.1818 64.641 59.875 64.1467 59.2614 63.7944C58.6477 63.4421 57.7727 63.266 56.6364 63.266C55.8807 63.266 55.2372 63.3469 54.706 63.5089C54.1747 63.668 53.7699 63.8981 53.4915 64.1992C53.2131 64.4975 53.0739 64.8569 53.0739 65.2773C53.0739 65.908 53.3849 66.4009 54.0071 66.756C54.6264 67.1112 55.5028 67.2887 56.6364 67.2887C57.392 67.2887 58.0341 67.2092 58.5625 67.0501C59.0909 66.891 59.4929 66.6623 59.7685 66.364C60.044 66.0629 60.1818 65.7006 60.1818 65.2773ZM61.1364 57.9478C61.1364 58.5614 60.9915 59.0898 60.7017 59.533C60.4119 59.9762 60.0128 60.3171 59.5043 60.5558C58.9957 60.7944 58.4148 60.9137 57.7614 60.9137C57.0966 60.9137 56.5099 60.7915 56.0014 60.5472C55.4901 60.3001 55.0909 59.9563 54.804 59.516C54.5142 59.0728 54.3693 58.5558 54.3693 57.9648C54.3693 57.5046 54.4545 57.0898 54.625 56.7205C54.7955 56.3512 55.0341 56.0487 55.3409 55.8129C55.6477 55.5771 56.0057 55.4308 56.4148 55.3739L56.4148 56.3796C56.1165 56.4563 55.8523 56.6268 55.6222 56.891C55.3892 57.1523 55.2727 57.5046 55.2727 57.9478C55.2727 58.3398 55.375 58.6836 55.5795 58.979C55.7812 59.2717 56.0668 59.5004 56.4361 59.6651C56.8026 59.8271 57.233 59.908 57.7273 59.908C58.233 59.908 58.6733 59.8285 59.0483 59.6694C59.4233 59.5075 59.7145 59.2802 59.9219 58.9876C60.1293 58.6921 60.233 58.3455 60.233 57.9478C60.233 57.6864 60.1875 57.4492 60.0966 57.2362C60.0057 57.0231 59.875 56.8427 59.7045 56.695C59.5341 56.5472 59.3295 56.4421 59.0909 56.3796L59.0909 55.3739C59.4773 55.4308 59.8253 55.5714 60.1349 55.7958C60.4418 56.0174 60.6861 56.3114 60.8679 56.6779C61.0469 57.0415 61.1364 57.4648 61.1364 57.9478ZM61 53.9038L54.4545 53.9038L54.4545 52.9322L55.4773 52.9322L55.4773 52.8469C55.1278 52.7106 54.8565 52.4904 54.6634 52.1864C54.4673 51.8825 54.3693 51.5174 54.3693 51.0913C54.3693 50.6594 54.4673 50.3001 54.6634 50.0131C54.8565 49.7234 55.1278 49.4975 55.4773 49.3356L55.4773 49.2674C55.1392 49.0998 54.8707 48.8484 54.6719 48.5131C54.4702 48.1779 54.3693 47.7759 54.3693 47.3072C54.3693 46.7219 54.5526 46.2433 54.919 45.8711C55.2827 45.4989 55.8494 45.3129 56.6193 45.3129L61 45.3129L61 46.3185L56.6193 46.3185C56.1364 46.3185 55.7912 46.4506 55.5838 46.7148C55.3764 46.979 55.2727 47.2901 55.2727 47.6481C55.2727 48.1083 55.4119 48.4648 55.6903 48.7177C55.9659 48.9705 56.3153 49.0969 56.7386 49.0969L61 49.0969L61 50.1197L56.517 50.1197C56.1449 50.1197 55.8452 50.2404 55.6179 50.4819C55.3878 50.7234 55.2727 51.0344 55.2727 51.4151C55.2727 51.6765 55.3423 51.9208 55.4815 52.1481C55.6207 52.3725 55.8139 52.5543 56.0611 52.6935C56.3054 52.8299 56.5881 52.8981 56.9091 52.8981L61 52.8981L61 53.9038Z" fill="black"/>
</svg>
