<svg class="svg-icon" style="width: 1em; height: 1em;vertical-align: middle;fill: currentColor;overflow: hidden;" viewBox="0 0 1024 1024" version="1.1" xmlns="http://www.w3.org/2000/svg"><path d="M39.384615 1024V0h945.23077v1024H39.384615zM196.923077 78.769231H118.153846v78.769231h78.769231V78.769231z m0 157.538461H118.153846v78.769231h78.769231V236.307692z m0 157.538462H118.153846v78.769231h78.769231v-78.769231z m0 157.538461H118.153846v78.769231h78.769231v-78.769231z m0 157.538462H118.153846v78.769231h78.769231v-78.769231z m0 157.538461H118.153846v78.769231h78.769231v-78.769231zM748.307692 78.769231H275.692308v393.846154h472.615384V78.769231z m0 472.615384H275.692308v393.846154h472.615384V551.384615z m157.538462-472.615384h-78.769231v78.769231h78.769231V78.769231z m0 157.538461h-78.769231v78.769231h78.769231V236.307692z m0 157.538462h-78.769231v78.769231h78.769231v-78.769231z m0 157.538461h-78.769231v78.769231h78.769231v-78.769231z m0 157.538462h-78.769231v78.769231h78.769231v-78.769231z m0 157.538461h-78.769231v78.769231h78.769231v-78.769231z"  /></svg>