<svg width="441" height="92" viewBox="0 0 441 92" fill="none" xmlns="http://www.w3.org/2000/svg">
<rect x="183" y="15" width="258" height="75" rx="15" fill="#F8981E"/>
<path d="M2.76562 29.0909H17.2642L27.2372 53.3949H27.7401L37.7131 29.0909H52.2116V72H40.8139V47.1932H40.4787L30.9247 71.6648H24.0526L14.4986 47.0256H14.1634V72H2.76562V29.0909ZM64.9398 84.0682C63.6129 84.0682 62.3488 83.9634 61.1475 83.7539C59.9463 83.5584 58.8917 83.286 57.9838 82.9368L60.498 74.7237C61.4479 75.0589 62.3139 75.2754 63.0961 75.3732C63.8922 75.471 64.5697 75.4151 65.1284 75.2056C65.7011 74.9961 66.1131 74.598 66.3645 74.0114L66.6159 73.4247L55.302 39.8182H67.3702L72.5662 62.1108H72.9015L78.1813 39.8182H90.3333L78.6003 74.6818C78.0137 76.4557 77.1616 78.0481 76.0442 79.4588C74.9408 80.8835 73.4881 82.0079 71.6863 82.832C69.8844 83.6561 67.6356 84.0682 64.9398 84.0682ZM100.662 84.0682C99.3355 84.0682 98.0714 83.9634 96.8702 83.7539C95.669 83.5584 94.6144 83.286 93.7065 82.9368L96.2207 74.7237C97.1705 75.0589 98.0365 75.2754 98.8187 75.3732C99.6149 75.471 100.292 75.4151 100.851 75.2056C101.424 74.9961 101.836 74.598 102.087 74.0114L102.339 73.4247L91.0247 39.8182H103.093L108.289 62.1108H108.624L113.904 39.8182H126.056L114.323 74.6818C113.736 76.4557 112.884 78.0481 111.767 79.4588C110.663 80.8835 109.211 82.0079 107.409 82.832C105.607 83.6561 103.358 84.0682 100.662 84.0682ZM129.345 39.8182H140.911V73.0895C140.911 75.911 140.317 78.1179 139.13 79.7102C137.956 81.3026 136.308 82.427 134.185 83.0835C132.062 83.7399 129.583 84.0682 126.747 84.0682C126.328 84.0682 125.944 84.0612 125.595 84.0472C125.232 84.0333 124.834 84.0123 124.401 83.9844V75.4361C124.68 75.464 124.925 75.485 125.134 75.4989C125.33 75.5129 125.532 75.5199 125.742 75.5199C127.124 75.5199 128.067 75.3034 128.57 74.8704C129.087 74.4513 129.345 73.7739 129.345 72.8381V39.8182ZM135.128 36.4659C133.564 36.4659 132.223 35.9491 131.105 34.9155C129.988 33.8819 129.429 32.6387 129.429 31.1861C129.429 29.7334 129.988 28.4903 131.105 27.4567C132.223 26.4231 133.564 25.9062 135.128 25.9062C136.706 25.9062 138.047 26.4231 139.151 27.4567C140.268 28.4903 140.827 29.7334 140.827 31.1861C140.827 32.6387 140.268 33.8819 139.151 34.9155C138.047 35.9491 136.706 36.4659 135.128 36.4659ZM155.771 72.5028C153.717 72.5028 151.902 72.1676 150.323 71.4972C148.759 70.8127 147.53 69.7791 146.636 68.3963C145.742 67.0135 145.295 65.2536 145.295 63.1165C145.295 61.3565 145.595 59.855 146.196 58.6119C146.796 57.3548 147.634 56.3281 148.71 55.532C149.785 54.7358 151.036 54.1282 152.46 53.7092C153.899 53.2901 155.449 53.0178 157.112 52.892C158.913 52.7524 160.359 52.5848 161.449 52.3892C162.552 52.1797 163.348 51.8933 163.837 51.5302C164.326 51.1531 164.57 50.6572 164.57 50.0426V49.9588C164.57 49.1207 164.249 48.4782 163.607 48.0312C162.964 47.5843 162.14 47.3608 161.134 47.3608C160.031 47.3608 159.13 47.6052 158.432 48.0941C157.747 48.569 157.335 49.3023 157.195 50.294H146.552C146.692 48.3385 147.313 46.5367 148.417 44.8885C149.534 43.2263 151.161 41.8994 153.298 40.9077C155.435 39.902 158.103 39.3991 161.302 39.3991C163.607 39.3991 165.674 39.6715 167.504 40.2163C169.333 40.747 170.891 41.4943 172.176 42.4581C173.461 43.4079 174.439 44.5253 175.109 45.8104C175.794 47.0814 176.136 48.4643 176.136 49.9588V72H165.325V67.4744H165.073C164.431 68.6757 163.649 69.6464 162.727 70.3867C161.819 71.127 160.778 71.6648 159.605 72C158.446 72.3352 157.167 72.5028 155.771 72.5028ZM159.542 65.2116C160.422 65.2116 161.246 65.0301 162.014 64.6669C162.796 64.3037 163.432 63.7799 163.921 63.0955C164.41 62.4111 164.654 61.58 164.654 60.6023V57.9205C164.347 58.0462 164.019 58.1649 163.669 58.2766C163.334 58.3884 162.971 58.4931 162.58 58.5909C162.203 58.6887 161.798 58.7795 161.365 58.8633C160.946 58.9471 160.506 59.0239 160.045 59.0938C159.151 59.2334 158.418 59.4639 157.845 59.7852C157.286 60.0924 156.867 60.4766 156.588 60.9375C156.322 61.3845 156.19 61.8873 156.19 62.446C156.19 63.34 156.504 64.0244 157.133 64.4993C157.761 64.9742 158.564 65.2116 159.542 65.2116ZM155.016 36.0469C153.592 36.0469 152.383 35.572 151.392 34.6222C150.4 33.6723 149.904 32.527 149.904 31.1861C149.904 29.8452 150.4 28.6998 151.392 27.75C152.383 26.8002 153.592 26.3253 155.016 26.3253C156.399 26.3253 157.58 26.8002 158.557 27.75C159.549 28.6998 160.045 29.8452 160.045 31.1861C160.045 32.527 159.549 33.6723 158.557 34.6222C157.58 35.572 156.399 36.0469 155.016 36.0469ZM168.342 36.0469C166.917 36.0469 165.709 35.572 164.717 34.6222C163.725 33.6723 163.229 32.527 163.229 31.1861C163.229 29.8452 163.725 28.6998 164.717 27.75C165.709 26.8002 166.917 26.3253 168.342 26.3253C169.725 26.3253 170.905 26.8002 171.883 27.75C172.874 28.6998 173.37 29.8452 173.37 31.1861C173.37 32.527 172.874 33.6723 171.883 34.6222C170.905 35.572 169.725 36.0469 168.342 36.0469Z" fill="white"/>
<path d="M206.456 53.8977V72H194.891V39.8182H205.869V45.9361H206.205C206.903 43.8968 208.132 42.2975 209.892 41.1381C211.666 39.9788 213.733 39.3991 216.094 39.3991C218.371 39.3991 220.347 39.9229 222.023 40.9705C223.713 42.0041 225.019 43.4289 225.941 45.2447C226.877 47.0605 227.338 49.1347 227.324 51.4673V72H215.759V53.8977C215.773 52.3054 215.367 51.0553 214.543 50.1474C213.733 49.2395 212.602 48.7855 211.149 48.7855C210.199 48.7855 209.368 48.995 208.656 49.4141C207.958 49.8191 207.42 50.4058 207.043 51.174C206.666 51.9283 206.47 52.8362 206.456 53.8977ZM242.001 72.5028C239.947 72.5028 238.131 72.1676 236.553 71.4972C234.989 70.8127 233.76 69.7791 232.866 68.3963C231.972 67.0135 231.525 65.2536 231.525 63.1165C231.525 61.3565 231.825 59.855 232.426 58.6119C233.026 57.3548 233.864 56.3281 234.94 55.532C236.015 54.7358 237.265 54.1282 238.69 53.7092C240.129 53.2901 241.679 53.0178 243.341 52.892C245.143 52.7524 246.589 52.5848 247.678 52.3892C248.782 52.1797 249.578 51.8933 250.067 51.5302C250.556 51.1531 250.8 50.6572 250.8 50.0426V49.9588C250.8 49.1207 250.479 48.4782 249.837 48.0312C249.194 47.5843 248.37 47.3608 247.364 47.3608C246.261 47.3608 245.36 47.6052 244.661 48.0941C243.977 48.569 243.565 49.3023 243.425 50.294H232.782C232.922 48.3385 233.543 46.5367 234.647 44.8885C235.764 43.2263 237.391 41.8994 239.528 40.9077C241.665 39.902 244.333 39.3991 247.532 39.3991C249.837 39.3991 251.904 39.6715 253.734 40.2163C255.563 40.747 257.121 41.4943 258.406 42.4581C259.691 43.4079 260.669 44.5253 261.339 45.8104C262.023 47.0814 262.366 48.4643 262.366 49.9588V72H251.555V67.4744H251.303C250.661 68.6757 249.878 69.6464 248.957 70.3867C248.049 71.127 247.008 71.6648 245.835 72C244.675 72.3352 243.397 72.5028 242.001 72.5028ZM245.772 65.2116C246.652 65.2116 247.476 65.0301 248.244 64.6669C249.026 64.3037 249.662 63.7799 250.151 63.0955C250.64 62.4111 250.884 61.58 250.884 60.6023V57.9205C250.577 58.0462 250.249 58.1649 249.899 58.2766C249.564 58.3884 249.201 58.4931 248.81 58.5909C248.433 58.6887 248.028 58.7795 247.595 58.8633C247.176 58.9471 246.736 59.0239 246.275 59.0938C245.381 59.2334 244.647 59.4639 244.075 59.7852C243.516 60.0924 243.097 60.4766 242.818 60.9375C242.552 61.3845 242.42 61.8873 242.42 62.446C242.42 63.34 242.734 64.0244 243.362 64.4993C243.991 64.9742 244.794 65.2116 245.772 65.2116ZM241.246 36.0469C239.822 36.0469 238.613 35.572 237.622 34.6222C236.63 33.6723 236.134 32.527 236.134 31.1861C236.134 29.8452 236.63 28.6998 237.622 27.75C238.613 26.8002 239.822 26.3253 241.246 26.3253C242.629 26.3253 243.809 26.8002 244.787 27.75C245.779 28.6998 246.275 29.8452 246.275 31.1861C246.275 32.527 245.779 33.6723 244.787 34.6222C243.809 35.572 242.629 36.0469 241.246 36.0469ZM254.572 36.0469C253.147 36.0469 251.939 35.572 250.947 34.6222C249.955 33.6723 249.459 32.527 249.459 31.1861C249.459 29.8452 249.955 28.6998 250.947 27.75C251.939 26.8002 253.147 26.3253 254.572 26.3253C255.954 26.3253 257.135 26.8002 258.112 27.75C259.104 28.6998 259.6 29.8452 259.6 31.1861C259.6 32.527 259.104 33.6723 258.112 34.6222C257.135 35.572 255.954 36.0469 254.572 36.0469ZM278.284 64.3736L278.367 50.6293H279.876L287.67 39.8182H300.66L287.586 56.6634H284.318L278.284 64.3736ZM267.892 72V29.0909H279.457V72H267.892ZM287.754 72L280.379 59.2614L287.921 51.0483L300.995 72H287.754ZM311.576 84.0682C310.249 84.0682 308.985 83.9634 307.784 83.7539C306.582 83.5584 305.528 83.286 304.62 82.9368L307.134 74.7237C308.084 75.0589 308.95 75.2754 309.732 75.3732C310.528 75.471 311.206 75.4151 311.765 75.2056C312.337 74.9961 312.749 74.598 313.001 74.0114L313.252 73.4247L301.938 39.8182H314.006L319.202 62.1108H319.538L324.817 39.8182H336.969L325.236 74.6818C324.65 76.4557 323.798 78.0481 322.68 79.4588C321.577 80.8835 320.124 82.0079 318.322 82.832C316.521 83.6561 314.272 84.0682 311.576 84.0682ZM340.259 72V39.8182H351.238V45.9361H351.573C352.243 43.9247 353.389 42.3324 355.009 41.1591C356.629 39.9858 358.557 39.3991 360.792 39.3991C363.054 39.3991 365.003 39.9998 366.637 41.201C368.271 42.3883 369.256 43.9666 369.591 45.9361H369.926C370.471 43.9666 371.631 42.3883 373.404 41.201C375.178 39.9998 377.26 39.3991 379.648 39.3991C382.735 39.3991 385.235 40.3909 387.149 42.3743C389.076 44.3577 390.04 46.9976 390.04 50.294V72H378.475V53.2273C378.475 51.8165 378.119 50.7131 377.406 49.9169C376.694 49.1068 375.737 48.7017 374.536 48.7017C373.349 48.7017 372.406 49.1068 371.707 49.9169C371.023 50.7131 370.681 51.8165 370.681 53.2273V72H359.618V53.2273C359.618 51.8165 359.262 50.7131 358.55 49.9169C357.837 49.1068 356.881 48.7017 355.679 48.7017C354.883 48.7017 354.199 48.8833 353.626 49.2464C353.053 49.6096 352.606 50.1334 352.285 50.8178C351.978 51.4883 351.824 52.2914 351.824 53.2273V72H340.259ZM404.712 72.5028C402.658 72.5028 400.842 72.1676 399.264 71.4972C397.7 70.8127 396.471 69.7791 395.577 68.3963C394.683 67.0135 394.236 65.2536 394.236 63.1165C394.236 61.3565 394.536 59.855 395.137 58.6119C395.737 57.3548 396.575 56.3281 397.651 55.532C398.726 54.7358 399.976 54.1282 401.401 53.7092C402.84 53.2901 404.39 53.0178 406.052 52.892C407.854 52.7524 409.3 52.5848 410.389 52.3892C411.493 52.1797 412.289 51.8933 412.778 51.5302C413.267 51.1531 413.511 50.6572 413.511 50.0426V49.9588C413.511 49.1207 413.19 48.4782 412.547 48.0312C411.905 47.5843 411.081 47.3608 410.075 47.3608C408.972 47.3608 408.071 47.6052 407.372 48.0941C406.688 48.569 406.276 49.3023 406.136 50.294H395.493C395.632 48.3385 396.254 46.5367 397.357 44.8885C398.475 43.2263 400.102 41.8994 402.239 40.9077C404.376 39.902 407.044 39.3991 410.243 39.3991C412.547 39.3991 414.615 39.6715 416.444 40.2163C418.274 40.747 419.832 41.4943 421.117 42.4581C422.402 43.4079 423.379 44.5253 424.05 45.8104C424.734 47.0814 425.077 48.4643 425.077 49.9588V72H414.265V67.4744H414.014C413.372 68.6757 412.589 69.6464 411.667 70.3867C410.76 71.127 409.719 71.6648 408.546 72C407.386 72.3352 406.108 72.5028 404.712 72.5028ZM408.483 65.2116C409.363 65.2116 410.187 65.0301 410.955 64.6669C411.737 64.3037 412.373 63.7799 412.862 63.0955C413.351 62.4111 413.595 61.58 413.595 60.6023V57.9205C413.288 58.0462 412.96 58.1649 412.61 58.2766C412.275 58.3884 411.912 58.4931 411.521 58.5909C411.144 58.6887 410.739 58.7795 410.306 58.8633C409.887 58.9471 409.447 59.0239 408.986 59.0938C408.092 59.2334 407.358 59.4639 406.786 59.7852C406.227 60.0924 405.808 60.4766 405.529 60.9375C405.263 61.3845 405.131 61.8873 405.131 62.446C405.131 63.34 405.445 64.0244 406.073 64.4993C406.702 64.9742 407.505 65.2116 408.483 65.2116ZM403.957 36.0469C402.533 36.0469 401.324 35.572 400.333 34.6222C399.341 33.6723 398.845 32.527 398.845 31.1861C398.845 29.8452 399.341 28.6998 400.333 27.75C401.324 26.8002 402.533 26.3253 403.957 26.3253C405.34 26.3253 406.52 26.8002 407.498 27.75C408.49 28.6998 408.986 29.8452 408.986 31.1861C408.986 32.527 408.49 33.6723 407.498 34.6222C406.52 35.572 405.34 36.0469 403.957 36.0469ZM417.283 36.0469C415.858 36.0469 414.65 35.572 413.658 34.6222C412.666 33.6723 412.17 32.527 412.17 31.1861C412.17 29.8452 412.666 28.6998 413.658 27.75C414.65 26.8002 415.858 26.3253 417.283 26.3253C418.665 26.3253 419.846 26.8002 420.823 27.75C421.815 28.6998 422.311 29.8452 422.311 31.1861C422.311 32.527 421.815 33.6723 420.823 34.6222C419.846 35.572 418.665 36.0469 417.283 36.0469Z" fill="#010101"/>
</svg>
