<svg width="16" height="18" viewBox="0 0 16 18" fill="none" xmlns="http://www.w3.org/2000/svg">
<path d="M2.66667 2.7H13.3333C13.5691 2.7 13.7952 2.79482 13.9619 2.9636C14.1286 3.13239 14.2222 3.3613 14.2222 3.6C14.2222 3.83869 14.1286 4.06761 13.9619 4.2364C13.7952 4.40518 13.5691 4.5 13.3333 4.5H2.66667C2.43092 4.5 2.20483 4.40518 2.03813 4.2364C1.87143 4.06761 1.77778 3.83869 1.77778 3.6C1.77778 3.3613 1.87143 3.13239 2.03813 2.9636C2.20483 2.79482 2.43092 2.7 2.66667 2.7ZM16 0V1.8H0V0H16ZM10.6667 5.4H12.4444V18H10.6667V5.4ZM3.55556 5.4H5.33333V18H3.55556V5.4ZM7.11111 5.4H8.88889V18H7.11111V5.4Z" fill="black"/>
</svg>
